<?xml version="1.0" encoding="UTF-8"?>
<svg id="Layer_1" xmlns="http://www.w3.org/2000/svg" version="1.1" viewBox="0 0 160 160">
  <path fill="none" stroke="currentColor" stroke-linecap="round" stroke-linejoin="round" stroke-width="4" d="M70.74,147.64c-.09-2.88.59-5.67.97-8.5.63-4.69,1.28-9.37,1.98-14.05.99-6.59,2.52-13.08,3.94-19.59,1.2-5.5,2.47-10.99,4.02-16.41.97-3.42,3.08-6.1,6.32-7.83,1.77-.95,3.67-1.63,5.33-2.8,2.87-2.01,4.91-4.68,6.11-7.93,1.21-3.26,3.48-4.97,6.86-5.57,3.57-.64,7.15-.87,10.75-.77,4.33.12,7.9,1.75,10.66,5.26,2.97,3.78,5.91,7.57,8.7,11.48,1.24,1.74,2.01,3.58,1.21,5.79-.2.57-.14,1.26.09,1.88,2.08.54,5.85-.97,6.64-2.94.8-2.01.42-3.87-.64-5.54-2.01-3.17-4.28-6.17-6.46-9.23-1.79-2.51-3.73-4.92-4.97-7.78-.92-2.13-1.25-4.37-.8-6.61.98-4.81.3-9.47-1.11-14.05-1.27-4.11-2.54-8.21-4.55-12.06-2.84-5.44-6.51-10.12-11.23-14.05-6.63-5.51-14.22-8.87-22.57-10.73-3.58-.8-7.2-1.2-10.86-1.44-4.98-.33-9.87.14-14.77.97-7.02,1.19-13.61,3.48-19.85,6.95-8.7,4.82-15.48,11.48-20.42,20.09-3.67,6.39-5.84,13.27-6.69,20.55-.55,4.68-.31,9.36.4,14.05,1.23,8.04,4.13,15.42,8.15,22.44,2.28,3.98,4.92,7.72,7.22,11.68,2.1,3.6,3.25,7.55,3.8,11.68.65,4.94-.02,9.82-.98,14.63-1.22,6.13-2.86,12.17-4.57,18.19-.21.74-.27,1.48-.23,2.24"/>
  <path fill="none" stroke="currentColor" stroke-linecap="round" stroke-linejoin="round" stroke-width="4" d="M137.58,88.62c-.33.39-.73.83-1.19.91-1.37.26-1.67,1.47-2.06,2.41-.36.88.02,1.91.42,2.81.44,1,1.03,1.92,1.45,2.94.45,1.09.19,1.96-.53,2.7-.33.35-.73.68-1.15.98-1.19.87-1.21,1.15-.37,2.35,1.36,1.92,1.37,3.08-.38,4.58-2.23,1.9-2.68,4.11-1.75,6.76.23.65.39,1.34.46,2.01.62,6.1-1.96,9.56-8.13,10.72-4.38.82-8.82.2-13.22.37-.87.03-1.74-.06-2.6.12-4.03.86-5.71,2.7-6.34,6.5-.61,3.71-1.6,7.32-2.44,10.96-.15.65-.15,1.26-.2,1.9"/>
  <path fill="none" stroke="currentColor" stroke-linecap="round" stroke-linejoin="round" stroke-width="4" d="M72.99,62.29c.08-1.63-.73-2.93-1.53-4.25-2.11-3.52-5.23-5.68-9.22-6.2-4.34-.57-8.16.87-11.21,4.08-3.15,3.32-4.13,7.38-3.76,11.8.47,5.63,2.91,10.38,6.96,14.28,2.7,2.6,5.15,5.38,7.1,8.61,1.66,2.76,4.26,3.6,6.82,3.15,2.82-.49,4.59-2.36,5.31-5.15.06-.21.08-.48-.05-.71"/>
  <path fill="none" stroke="currentColor" stroke-linecap="round" stroke-linejoin="round" stroke-width="4" d="M135.22,90.03c-1.52-1.77-3.65-2.32-5.79-2.83-5.79-1.37-11.7-1.47-17.59-1.26-3.91.14-7.84.46-11.69,1.25-4.92,1.02-8.8,3.52-11.21,8.03-.16.31-.34.66-.25,1.06"/>
  <path fill="none" stroke="currentColor" stroke-linecap="round" stroke-linejoin="round" stroke-width="4" d="M133.45,102.31c-1.89-.33-3.78.13-5.67,0-.67-.04-1.11-.1-1.58-.81-2.46-3.82-5.92-6.41-10.36-7.43-5.61-1.3-11.02-.46-16.04,2.35-4.08,2.28-6.77,5.71-8.05,10.25-.42,1.48-.67,2.97-.8,4.49-.07.78-1.02,3.34-1.26,4.07"/>
  <path fill="none" stroke="currentColor" stroke-linecap="round" stroke-linejoin="round" stroke-width="4" d="M89.87,116.36c.56,1.46,1.22,2.93,2.19,4.07.86,1.01,1.53,2,1.82,3.25.79,3.42.3,6.72-1.06,9.92-.44,1.05-.86,2.11-1.65,2.95"/>
  <path fill="none" stroke="currentColor" stroke-linecap="round" stroke-linejoin="round" stroke-width="4" d="M67.2,66.89c-1.71-.51-2.97.54-4.1,1.45-1.78,1.44-3.39,4.4-2.27,7.52.49,1.38,1.46,2.29,2.82,2.85.98.4,1.82.95,2.42,1.96.55.94,1.45,1.88,2.78,1.55,2.11-.53,2.4-2.54,1.39-4.1-.64-.99-1-1.96-.67-3.08.27-.92.78-1.66,1.88-1.72"/>
  <path fill="none" stroke="currentColor" stroke-linecap="round" stroke-linejoin="round" stroke-width="4" d="M65.55,70.44h1.12c.52-1.11.88-2.15.79-3.55-.07-1.07.35-2.23-.01-3.42-.87-2.81-2.69-4.59-5.57-5.18-2.57-.52-4.71.4-6.49,2.23-2.46,2.54-2.58,5.63-1.98,8.85.07.39.04.79.19,1.19.21.56.45.89,1.08.64"/>
  <path fill="none" stroke="currentColor" stroke-linecap="round" stroke-linejoin="round" stroke-width="4" d="M120.63,71.38c.41,2.07-1.2,4.33-4.19,4.96-2.96.62-5.99.55-8.98.94-1.41.19-2.83.39-4.25.48"/>
  <path fill="none" stroke="currentColor" stroke-linecap="round" stroke-linejoin="round" stroke-width="4" d="M82.91,117.66c-3.05,1.56-3.74,4.38-4.02,7.44-.27,2.9.23,5.71.95,8.5.35,1.34.59,2.67,0,4.01-.27.61-.1,1.26-.1,1.89,0,.27.15.49.56.62,2.08.7,4.2,1.12,6.39,1.14.91,0,1.79-.26,2.72-.26,1.14,0,1.67.3,1.52,1.33-.16,1.14-.21,2.31-.55,3.43-.12.4-.02.86-.02,1.29"/>
  <path fill="none" stroke="currentColor" stroke-linecap="round" stroke-linejoin="round" stroke-width="4" d="M90.58,141.03c.23-.59.67-1.08.72-1.77.18-2.53.23-2.62-2.15-3.4-2.15-.7-4.36-.95-6.61-.29-.61.18-1.32.24-2,.15"/>
  <path fill="none" stroke="currentColor" stroke-linecap="round" stroke-linejoin="round" stroke-width="4" d="M85.5,109.39c-1.27.84-1.5,2.24-1.74,3.55-.27,1.5-.89,2.93-.73,4.66,1.02.35,1.84,1.23,2.46,2.3,1.17,2.01,3.43,2.79,5.69.84.1-.09.23-.31.46-.25"/>
  <path fill="none" stroke="currentColor" stroke-linecap="round" stroke-linejoin="round" stroke-width="4" d="M79.84,140.2c-.74.68-.56,1.64-.69,2.48-.25,1.64-.69,3.27-.61,4.96"/>
  <path fill="none" stroke="currentColor" stroke-linecap="round" stroke-linejoin="round" stroke-width="4" d="M85.56,109.39c.84.64,1.79,2.54,2.27,3.44.42.79,1.56,2.62,1.92,3.19"/>
  <path fill="none" stroke="currentColor" stroke-linecap="round" stroke-linejoin="round" stroke-width="4" d="M85.63,109.62"/>
  <path fill="none" stroke="currentColor" stroke-linecap="round" stroke-linejoin="round" stroke-width="4" d="M126.6,102.31c-1,1.64-2.53,2.7-4.14,3.66-.28.17-.6.28-.47.71"/>
</svg>
