<?xml version='1.0' encoding='utf-8'?>
<svg xmlns="http://www.w3.org/2000/svg" viewBox="0 0 160 160" fill="none">
  <g transform="translate(3.5982 3.8091) scale(0.958618)">
    <path fill="currentColor" fill-rule="evenodd" clip-rule="evenodd" d="M91.78,141.06c-11.02,10.97-28.38,10.51-39.5.14-11.67-10.88-12.97-29.78-1.45-41.33l51.08-51.23c6.45-6.47,15.44-9.66,24.65-8.43,8.35,1.12,16.13,6.23,20.61,13.59,7.44,12.25,4.89,27.24-5.15,37.24l-50.23,50.02ZM87.53,137.19c-7.91,7.83-20.21,8-29.01,1.71-11.29-8.08-13.75-24.78-3.8-34.81l25.99-26.18,33.16,33.18-26.35,26.1Z" />
    <path fill="currentColor" d="M49.29,10.98l-22.52,61.25c-15.42-7.34-22.64-24.9-16.86-40.84C15.61,15.65,32.59,6.47,49.29,10.98Z" />
    <path fill="currentColor" d="M32.82,74.34L55.35,13.28c15.04,7.53,21.89,25.21,16.03,40.8-5.78,15.4-22.53,24.49-38.57,20.26Z" />
  </g>
</svg>