<?xml version='1.0' encoding='utf-8'?>
<svg xmlns="http://www.w3.org/2000/svg" viewBox="0 0 160 160" fill="none">
  <g transform="translate(5.1753 5.5548) scale(0.948769)">
    <path fill="currentColor" d="M116.77,138.05c-.19,2.35.29,11.06-1.09,12.18-.53.43-1.76,1.2-2.63.42-21.32-19.27-45.08-43.08-59.55-67.99-12.1-21.02-18.16-45.77.39-65.7-3.52,11.9,3.81,27.07,9.51,37.45,16.38,28.38,43.49,56.62,67.71,78.61.82.75,1.02,1.77.68,2.7s-1.29,1.38-2.39,1.46l-12.63.88Z" />
    <path fill="currentColor" d="M97.75,92.95c-5.66-6.26-10.79-12.56-15.98-19.26,9.4-13.17,20.61-30.09,22.8-46.34.65-3.49.14-6.52-.68-10.36,8.81,9.15,12.97,21.72,11.54,34.37-.59,6.28-2.35,12.02-4.59,17.89-3.4,8.27-7.69,15.91-13.09,23.7Z" />
    <path fill="currentColor" d="M44.64,150.65c-5.17,2.29-3.09-9.48-3.64-12.63l-12.65-.85c-1.18-.08-2.12-.64-2.44-1.64-.37-1.14.06-2.05,1.07-2.8,11.26-10.38,22.14-20.85,32.58-32.4,5.19,6.9,10.38,13.36,16.25,19.82-10.07,10.74-20.34,20.84-31.16,30.5Z" />
    <path fill="currentColor" d="M98.3,34.04c-11.94-6.95-26.67-7.01-38.88,0-2.45-7.4-2.8-15.34.66-22.42,11.11-7.59,26.45-7.52,37.58-.02,3.46,7.14,3.08,14.99.64,22.43Z" />
  </g>
</svg>