<?xml version='1.0' encoding='utf-8'?>
<svg xmlns="http://www.w3.org/2000/svg" id="Layer_1" version="1.1" viewBox="0 0 160 160">
  <g transform="translate(9.1893 5.5039) scale(0.920217)">
    <path fill="none" stroke="currentColor" stroke-linecap="round" stroke-linejoin="round" stroke-width="4" d="M48.16,6.27c1.56-.34,2.79.48,3.99,1.24,6.5,4.14,13.11,8.08,19.67,12.11,6.69,4.12,13.4,8.22,20.11,12.3,7.22,4.39,14.41,8.84,21.65,13.22,9.4,5.68,15.52,13.79,17.98,24.56,1.25,5.48,1.14,10.94.02,16.44-1.52,7.52-3,15.05-4.5,22.57-1.36,6.86-2.76,13.72-4.12,20.59-1.47,7.43-3.06,14.83-4.47,22.27-.26,1.38-.71,2.72-.61,4.15" />
    <path fill="none" stroke="currentColor" stroke-linecap="round" stroke-linejoin="round" stroke-width="4" d="M43.4,23.48c.79-.06,1.47.15,2.16.6,8.53,5.46,17.12,10.82,25.65,16.28,5,3.2,10.04,6.34,15.05,9.52,2.89,1.83,6.12,2.17,9.34.92,2.49-.96,4.86-1.27,7.39-.15,5.23,2.32,6.56,9.44,2.59,13.21-2.11,2.01-3.86,4.19-4.6,7.08-1.08,4.22-5.22,6.31-8.59,5.95-3.89-.42-6.82-2.63-7.64-7.03-.9-4.79-3.25-8.62-7.28-11.17-11.67-7.38-23.36-14.73-35-22.14-1.32-.84-2.7-1.58-3.97-2.49-.36-.26-.7-.29-1.09-.29" />
    <path fill="none" stroke="currentColor" stroke-linecap="round" stroke-linejoin="round" stroke-width="4" d="M77.04,80.92c.07.76-.09,1.5-.47,2.15-3.09,5.3-4.98,11.04-5.94,17.06-.54,3.36-.31,6.79.31,10.12.58,3.14.49,6.28.21,9.37-.53,5.7-1.6,11.34-3.01,16.9-.77,3.03-1.6,6.06-2.52,9.04-.4,1.3-.57,2.54-.56,3.86" />
    <path fill="none" stroke="currentColor" stroke-linecap="round" stroke-linejoin="round" stroke-width="4" d="M96.39,146.51c.15-2.39.72-4.71,1.08-7.06.62-3.95,1.32-7.89,2-11.83.86-4.98,1.33-10.05,2.81-14.88,1.14-3.75,3.24-7.06,6.08-9.86,1.63-1.61,3.34-3.1,4.05-5.51,1.17-3.95-1.52-9.09-6.5-9.66-1.1-.13-2.24-.02-3.39.21-1.76.35-3.48-.26-5.06-1.16-2-1.15-4.13-1.3-6.29-.61-5.19,1.66-7.07,7.8-3.8,12.09,2.03,2.66,3.34,5.5,3.62,8.79.15,1.8-.29,3.59-.57,5.38-.65,4.1-1.36,8.19-2.03,12.28-.63,3.85-1.39,7.67-1.97,11.52-.44,2.91-1.24,5.78-1.24,8.75" />
    <path fill="none" stroke="currentColor" stroke-linejoin="round" stroke-width="4" d="M21.44,45.36c1.13,0,1.95.37,2.8,1.27,7.72,8.15,16.81,14.55,26.38,20.32,7.79,4.69,15.89,8.76,24.26,12.3.26.11.5.28.77.44,1.9,1.13,1.58,2.2,1.08,2.07" />
    <path fill="none" stroke="currentColor" stroke-linecap="round" stroke-linejoin="round" stroke-width="4" d="M120.66,78c-.01-.41.08-.85-.16-1.23-1.13-1.84-1.81-3.92-3.08-5.68-1.14-1.59-2.91-2.1-4.28-1.06-2.14,1.64-4.04,3.59-5.51,5.84-1.21,1.84.35,4.43,2.57,4.76,2.2.33,4.42.44,6.61.88,1.93.39,3.52-1.01,3.99-3.36" />
  </g>
</svg>