<svg xmlns="http://www.w3.org/2000/svg" viewBox="0 0 160 160" fill="none">
  <path fill="currentColor" d="M87.08,92.07h-15.5c-1.84.01-3.58.07-5.38-.17l-5.45-.74c-1.18-.16-2.45-.45-2.45-1.75,0-1.13.47-2.96.53-5.43.04-1.74.12-3.39.28-5.12.3-3.11-.09-4.75.81-7.47-.15-.32-.42-.36-.72-.24-.7.4-1.19.93-1.67,1.54l-4.71,5.89-4.26,5.23-3.74,4.65-2.16,2.58c-1.25,1.49-2.37,2.97-3.85,4.25-2.3,1.98-5.67,1.05-7.38-.9-1.52-1.73-1.67-5.09-.05-7.25,1.12-1.48,2.3-2.8,3.46-4.23l1.97-2.42c.78-.95,1.6-1.8,2.3-2.81.96-1.38,2.08-2.52,3.11-3.83l4.67-5.9,2.55-2.95,2.5-3.34,3.05-3.53c2.54-2.94,6.83-3.29,10.75-3.3l24.82-.02c3.81,0,7.5.31,9.98,3.36l5.42,6.65c.89,1.1,1.77,2.11,2.61,3.25.88,1.21,1.85,2.25,2.77,3.42l2.25,2.87c1.09,1.38,2.27,2.58,3.28,4.03.8,1.16,1.7,2.16,2.6,3.24l4.16,4.96c2.11,2.51,2.23,6.18-.36,8.4-1.83,1.58-4.26,1.85-6.37.57-2.35-1.42-3.25-3.65-5.06-5.63-1.07-1.18-2.02-2.35-2.93-3.66-.7-1.01-1.54-1.84-2.33-2.79l-2.8-3.4-1.91-2.48c-1.4-1.81-2.91-3.39-4.24-5.25-.4-.46-.71-.92-1.22-1.26-1.13-2.07-.15,6.83-.19,6.47.58,4.9.25,6.48.66,11.13.06.72.07,1.35-.23,1.98-.43.33-.97.78-1.52.84-3.53.4-5.64.53-8.05.54Z" />
  <circle cx="77.7" cy="29.43" r="20.65" fill="currentColor" />
  <path fill="currentColor" d="M99.78,144.46c-1.28,3.17-5.34,5.49-8.96,4.24s-6.05-5.72-4.48-9.46l1.95-4.64,2.38-6c1.12-2.81,2.55-5.97,1.27-8.57l-1.21-2.47c-1.72-3.5-3.14-5-4.59-7.92-.47-.94-.4-2.01.34-2.78,2.04-2.1,4.46-3.61,7.2-4.65,1.89-.72,4-1.35,5.21.72l2.3,3.94,2.58,4.73c.75,1.38,1.36,2.76,2.04,4.17,1.62,3.33,1.65,8.3.43,11.77l-2.18,6.24c-1.04,2.96-2.27,5.71-3.44,8.61l-.84,2.08Z" />
  <path fill="currentColor" d="M69.24,139.85c.89,3.19-.33,6.12-2.85,7.88-3.36,2.34-7.83,1.49-10-2.01-.69-1.11-1.26-2.22-1.69-3.46-1.22-3.49-2.88-6.56-4.16-10.44l-1.45-4.4c-.89-2.68-1.19-8.26.18-11.01l1.22-2.45c1.22-2.45,2.37-4.82,3.81-7.15.82-1.33,1.61-2.55,2.3-3.96,1.31-2.66,4.24-.92,7.26.32.94.38,1.71.94,2.5,1.56l2.49,1.98c2.03,1.62-.08,3.69-.81,4.96l-2.65,4.62c-1.55,2.7-3.25,5.42-2.22,8.17l2.4,6.4c.67,1.78,3.5,8.32,3.69,9Z" />
  <path fill="none" stroke="currentColor" stroke-linecap="round" stroke-linejoin="round" stroke-width="2" d="M67.87,108.98c-1.72.12-1.91.12-3.6.42" />
  <path fill="none" stroke="currentColor" stroke-linecap="round" stroke-linejoin="round" stroke-width="2" d="M94.76,110.13c-2.34-.63-4.63-1.5-7.12-1.28" />
</svg>
