<?xml version="1.0" encoding="UTF-8"?>
<svg id="Layer_1" xmlns="http://www.w3.org/2000/svg" version="1.1" viewBox="0 0 928.35 928.35">
  <path fill="currentColor" d="M197.74,822.6c-51.1-9.25-64.75-19.93-61.91-74.18.27-12.09.96-22.63,2.69-34.27,1.33-8.97,3.56-18.27-.35-26.85-9.19-16.02-21.72-30.09-18.37-50.08-.08-18.33,5.35-38.87-1.71-56.32-11.63-18.4-35.71-27.16-48.48-44.26-6.28-11.62,5.3-22.89,9.86-33.25,20.59-36.65,38.76-75.47,66.8-107.3,9.57-10.26,10.63-22.13,7.79-35.66-2.77-17.56-4.33-32.48-4.41-50.13-.78-40.81,9.19-80.8,27.16-117.16,14.1-29.33,35.43-54.16,59.15-76.23C332.01,29.49,475.18,5.93,598.72,37.71c93.69,26.08,188.6,90.14,235.97,176.36,48.1,89.95,34.89,199.41-3.44,290.43-21.22,53.24-52.78,101.35-83.18,149.65-31.68,64.98-26.02,142.23-20.52,212.25-.21,13.94,10.41,44.88,1.96,54.89-35.99,4.45-269.74-.29-360.11,1.38-13.19-.89-29.87,2.32-30.81-2.39-3.09-15.8-2.77-34.42-3.73-50.86-1.71-13.51,1.26-26.55-5.71-37.95-8.47-6.14-33.04-1.87-44.86-3.04-29.49.34-57.99.2-86.4-5.81l-.16-.03ZM361.97,791.01c5.23,4.33,5.72,12.66,6.25,19.16.91,14.34,1.71,28.48,2.46,42.94,1.62,10.51-2.46,26.33,6.49,32.94,36.24,3.19,112.3-.12,159.72,1.01,32.22-.03,65.82-.13,98.31-.27,13.35-1.2,45.07,3.31,52.85-3.76,4.69-5.31,2.19-13.52,1.93-20.08-.95-11.43-1.94-21.86-2.13-33.45-.19-33.41-1.6-67.3,1.77-100.53,10.59-94.15,46.63-113,85.62-190.04,27.85-54.31,49.31-112.49,53.32-173.89,8.44-89.21-32.63-171.17-103.97-224.16-50.19-37.78-108.14-66.92-170.68-76.41-121.45-20.35-275.92,22.17-339.3,135.04-22.93,38.69-30.32,83.93-27.08,128.42.68,15.78,2.98,31.57,6.15,46.68,3.85,13.9-3.8,26.29-12.9,36.2-9.48,11.46-19.04,22.96-27.12,35.61-11.86,18.21-22.07,37.44-31.98,56.77-13.04,21.86-2.33,30.26,15.18,43.34,14.06,10.27,23.29,18.6,21.1,37.25-.35,12.55-.81,25.12-.99,37.62-.35,12.39-.91,24.35,5.37,35.18,5.42,10.01,14.27,19.05,16.9,30.27,2.04,13.62-4.43,27.14-5.62,40.75-1.11,15.45-8.64,44.09,7.58,52.76,39.91,16.6,85.88,11.64,128.28,11.93,13.98,1.12,43.27-8.51,52.38-1.36l.11.09Z"/>
  <path fill="currentColor" d="M211.69,495.94c-6.76-1.98-13.89-4.58-20.35-6.85-4.97-1.73-10.2-3.36-14.52-6.42-11.64-8.59-11.83-25.31,2.08-31.84,6.57-3.3,14.21-1.27,20.8,1.02,4.13,1.31,8.18,2.64,12.07,4.01,9,3.52,18.84,6.06,26.26,12.55,11.97,11.1,4.82,27.23-9.69,30.09-5.77.91-11.06-1.04-16.48-2.52l-.17-.05Z"/>
  <path fill="currentColor" d="M372.52,496.37c-14.36,2.51-25.05-12.89-18.4-25.59,4.35-8,14.89-11.57,23.04-14.45,5.45-1.88,10.68-3.89,16.32-5.62,10.13-3.22,24.32-6.19,30.7,5.13,2.85,4.94,3.79,11.2,1.6,16.37-1.93,5.37-7.32,8.99-12.66,10.99-9.18,3.74-18.37,6.88-27.81,9.75-4.13,1.26-8.22,2.72-12.6,3.41l-.19.03Z"/>
  <path fill="currentColor" d="M424.58,575.55c-12.55,15.63-29.65,4.81-31.52-14.83-.84-8.01.4-16.06,1.15-24.04,1.01-8.48,1.15-18.4,5.37-24.03,4.44-6.17,13.43-7.91,20.34-5.27,7.94,3.04,10.53,10.91,11.2,19.28.61,7.78.68,15.87.27,23.89-.6,8.99-1.37,17.84-6.7,24.85l-.12.15Z"/>
  <path fill="currentColor" d="M320.14,726.66c-7.94,5.01-17.68,9.72-26.39,5.07-6.78-3.67-11.22-12.31-8.68-19.84,3.99-10.92,18.27-19.57,27.58-26.35,7.19-4.52,13.68-9.65,22.18-10.63,13.02-1.47,23.11,8.71,19.73,21.73-1.59,5.9-6.13,10.42-10.94,13.97-7.49,5.64-15.22,10.76-23.31,15.95l-.18.11Z"/>
  <path fill="currentColor" d="M367.33,670.31c-14.42-11.76-1.12-30.14,4.9-42.91,5.27-10.17,11.22-23.89,23.96-26.03,11.34-1.55,22.47,10.91,19.5,21.83-2.04,7.33-6.04,14.35-9.22,21.4-8.17,17.49-21.07,39.09-38.98,25.84l-.16-.12Z"/>
  <path fill="currentColor" d="M222.18,772.15c-15.59-.82-24.74-15.5-14.55-28.27,8.71-10.83,30.18-17.91,43.52-20.66,5.66-1.02,11.58-1.41,16.92.81,7.81,3.08,11.93,11.99,9.49,19.94-3.43,12.28-16.82,18.46-28.49,22.72-8.97,3.26-18.28,6.05-26.7,5.47h-.19Z"/>
  <path fill="currentColor" d="M327.43,498.88c-7.24,5.8-17.44,4.8-26.25,4.65-7.29-.33-14.55.06-21.87-1.09-15.16-1.74-30.56-19.13-14.98-31.17,5.65-4.04,13.29-4.67,20.2-4.82,25.49-.2,57.08,1.88,50.5,21.44-1.41,4.14-4,8.09-7.45,10.88l-.15.12Z"/>
</svg>
