<?xml version='1.0' encoding='utf-8'?>
<svg xmlns="http://www.w3.org/2000/svg" id="Layer_1" version="1.1" viewBox="0 0 160 160">
  <g transform="translate(0.9632 3.7148) scale(0.962103)">
    <path fill="none" stroke="currentColor" stroke-linecap="round" stroke-linejoin="round" stroke-width="4" d="M99.87,150.8c-.2-1.65.49-3.17.87-4.7.71-2.82,1.28-5.65,1.84-8.5.71-3.59,3.46-5.54,6.6-5.77,4.12-.29,8.25-.04,12.38-.13,2.3-.05,4.5-.52,6.61-1.51,3.16-1.48,5.03-4.84,4.51-8.86-.2-1.56-.69-3.04-.89-4.59-.21-1.6.3-2.87,1.33-4.01.37-.41.79-.78,1.17-1.18,1.18-1.24,1.26-2.63.24-4.01-1.05-1.41-1.04-1.6.36-2.71,1.63-1.3,2.3-2.32.95-4.72-.39-.69-.73-1.4-1.06-2.12-1.01-2.18.12-3.92,1.76-4.72,1.13-.55,2.35-.75,3.54-1.05,1.09-.28,2.14-.66,3.06-1.31,1.74-1.25,2.2-3.6,1.29-5.88-.44-1.1-1.08-2.09-1.75-3.07-2.91-4.26-6.1-8.32-8.95-12.62-2.03-3.07-2.59-6.45-1.94-10.13.64-3.59.31-7.19-.66-10.72-1.3-4.76-2.76-9.45-4.94-13.92-3.28-6.74-8.02-12.23-14.06-16.6-6.72-4.85-14.3-7.7-22.4-9.18-4.51-.83-9.08-1.12-13.67-.97-6.44.21-12.78,1.25-18.85,3.34-9.47,3.27-17.89,8.29-24.55,15.98-5.28,6.09-9.01,12.98-11.21,20.75-1.61,5.69-2.25,11.46-1.96,17.33.24,4.86,1.21,9.63,2.72,14.25,2.22,6.83,5.61,13.1,9.51,19.11,1.93,2.97,3.95,5.88,5.34,9.18,1.11,2.63,1.71,5.33,2.14,8.14.52,3.41.32,6.78-.08,10.14-.5,4.26-1.5,8.46-2.58,12.61-.95,3.66-1.86,7.34-2.95,10.96-.13.45.17.79.03,1.19" />
    <path fill="none" stroke="currentColor" stroke-linecap="round" stroke-linejoin="round" stroke-width="4" d="M90.08,34.94c-1.55-1.18-2.5-2.85-3.65-4.36-.25-.33-.12-.71-.11-1.06.03-2.53.15-5.05-1.38-7.34-.58-.88-1.43-1.22-2.19-1.71-1.62-1.05-3.44-1.56-5.39-1.85-3.53-.51-6.76.2-9.92,1.67-.38.18-.88.34-1.02.63-.81,1.6-2.26,1.4-3.57,1.26-6.76-.76-13.85,2.91-16.73,8.87-.54,1.12-1.34,1.8-2.48,2.25-4.61,1.82-7.48,5.16-8.63,10-.35,1.45.04,2.95-.45,4.37-.04.12,0,.24.11.36,1.01,1.09,1.42,2.61,2.51,3.62.56.52.57,1.05.57,1.68" />
    <path fill="none" stroke="currentColor" stroke-linecap="round" stroke-linejoin="round" stroke-width="4" d="M83.01,73.84c-3.18-1.35-6.51-2.05-9.9-2.62-2.9-.49-5.8-.76-8.73-.79-3.19-.03-6.35.29-9.43,1.17-2.2.63-4.45.75-6.72.48-.43-.05-.86,0-1.3,0" />
    <path fill="none" stroke="currentColor" stroke-linecap="round" stroke-linejoin="round" stroke-width="4" d="M34.43,47.91c-2.29,1.07-3.25,3.24-4.21,5.32-1.43,3.08-1.89,6.39-1.43,9.76.27,2.02.99,3.95,2.13,5.64.61.9.95,1.83,1.14,2.85.65,3.5,2.65,5.94,5.91,7.27.89.36,1.59,1.24,2.58,1.17.88-.06,1.73-.03,2.6.05,3.13.27,6.21-.08,9.32-.43,2.12-.24,4.23-.56,6.36-.79,3.47-.37,6.92-.36,10.38.03.59.07,1.03.38,1.53.6" />
    <path fill="none" stroke="currentColor" stroke-linecap="round" stroke-linejoin="round" stroke-width="4" d="M105.41,39.42c1.81-1.98,4.02-2.91,6.72-2.59.16.02-.03.02.12,0,2.6-.47,4.17,1.43,5.86,2.77,1.71,1.36,2.82,3.32,3.32,5.49.52,2.22.63,4.45-.42,6.61-.18.37-.17.9-.05,1.4,1.38,5.98-1.62,11.15-7.4,13.1-2.43.82-4.9,1.16-7.44,1.27-1.14.05-2.3-.15-3.41.23-.2.58-.4,1.14-.37,1.77.23,4.84-3.33,10.08-8.25,11.9-3.3,1.22-6.69,1.27-10.14.76-1.03-.15-2.07-.66-3.18-.3-.42.14-.57-.44-.93-.58-2.6-.99-5.27-1.72-8.02-2.09-.54-.07-1.03.05-1.22.91-.86,4.04-3.01,7.19-6.53,9.49-1.29.85-2.57,1.3-4.04,1.63-5.42,1.23-10.51.68-15.08-2.64-2.07-1.5-3.62-3.47-4.4-5.98-.25-.8-.42-1.55-.21-2.36" />
    <path fill="none" stroke="currentColor" stroke-linecap="round" stroke-linejoin="round" stroke-width="4" d="M80.53,81.97c-.78,2.46-2.22,4.48-4.37,5.88-3.25,2.1-5.08,5.21-6.61,8.62-.74,1.65-1.57,3.27-2.23,4.96-.39,1.01-1.06,1.56-2.24,1.43-1.25-.14-2.53.15-3.77-.25-.46-.15-.93.32-1.41.05" />
    <path fill="none" stroke="currentColor" stroke-linecap="round" stroke-linejoin="round" stroke-width="4" d="M46.34,41.54c.06.81-.2,1.5-.56,2.26-1.32,2.78-1.87,5.72-1.58,8.83.2,2.17.68,4.25,1.55,6.25,1.38,3.19,3.9,5.09,7.07,6.25" />
    <path fill="none" stroke="currentColor" stroke-linecap="round" stroke-linejoin="round" stroke-width="4" d="M65.79,22.09c.67.75,1.6,1.05,2.48,1.4,2.57,1.04,4.5,2.71,5.53,5.32.31.78.9,1.28,1.53,1.77,3.3,2.53,4.75,5.87,4.38,10.02-.09,1.01-.01,2.04-.01,3.06" />
    <path fill="none" stroke="currentColor" stroke-linecap="round" stroke-linejoin="round" stroke-width="4" d="M59.96,42.48c.33,4,3.13,6.82,7.6,7.79,1.14.25,2.28.22,3.42.22,3.74.01,7.17.96,10.14,3.31.53.42,1.12.52,1.77.47,4.8-.34,9.3.86,13.26,3.39,1.85,1.18,3.32,3.12,4.46,5.19.84,1.52,1.18,3.22,1.97,4.74" />
    <path fill="none" stroke="currentColor" stroke-linecap="round" stroke-linejoin="round" stroke-width="4" d="M69.92,41.19c-.09-1.72-.48-3.37-1.42-4.83-3.34-5.17-10.4-5.21-14.04-1.08-1.28,1.45-2.15,2.99-2.1,4.97" />
    <path fill="none" stroke="currentColor" stroke-linecap="round" stroke-linejoin="round" stroke-width="4" d="M51.94,50.97c-.03,1.4.72,2.47,1.48,3.53,2.34,3.27,5.53,5.27,9.43,6.12,2.54.55,5.11.06,7.66-.06.86-.04,1.93.05,2.71-.64" />
    <path fill="none" stroke="currentColor" stroke-linecap="round" stroke-linejoin="round" stroke-width="4" d="M72.99,58.16c.27,2.68,2.32,3.8,4.37,4.81,2.09,1.03,4.41,1.29,6.71,1.42,3.71.21,6.88,2.72,7.79,6.26.16.64.07,1.26.05,1.89" />
    <path fill="none" stroke="currentColor" stroke-linecap="round" stroke-linejoin="round" stroke-width="4" d="M96.45,26.45c.78-.55,1.81-.68,2.46-1.43.15-.18.27-.09.37-.09,6.11,0,10.78,2.64,14.01,7.78.71,1.13,1.28,2.43.85,3.87" />
    <path fill="none" stroke="currentColor" stroke-linecap="round" stroke-linejoin="round" stroke-width="4" d="M113.07,47.79c.62,2.3.9,4.55-.21,6.85-1.06,2.2-4.22,4.85-7.57,4.82" />
    <path fill="none" stroke="currentColor" stroke-linecap="round" stroke-linejoin="round" stroke-width="4" d="M99.04,24.8c-.53-1.77-2.09-2.35-3.54-3.06-2.57-1.27-5.23-2.05-8.14-1.42-.93.2-1.81.45-2.47,1.19" />
    <path fill="none" stroke="currentColor" stroke-linecap="round" stroke-linejoin="round" stroke-width="4" d="M62.26,91.04c.57,1.16.06,2.29-.13,3.42-.38,2.28-.77,4.56-1.17,6.84-.07.37.14.7.12,1.06" />
    <path fill="none" stroke="currentColor" stroke-linecap="round" stroke-linejoin="round" stroke-width="4" d="M101.75,46.61c-.93-.96-1.89-1.9-2.95-2.71-2.19-1.67-4.63-1.82-7.19-1.07-.11.03-.23,0-.35,0" />
    <path fill="none" stroke="currentColor" stroke-linecap="round" stroke-linejoin="round" stroke-width="4" d="M95.62,33.17c-1.84-.09-3.48.32-4.98,1.49-.65.5-.8.93-.55,1.57.78,2.06.5,4.27.96,6.36.09.42-.13.68-.28.94-.78,1.38-1.04,2.97-1.73,4.38-.11.22-.02.54-.02.82" />
    <path fill="none" stroke="currentColor" stroke-linecap="round" stroke-linejoin="round" stroke-width="4" d="M102.34,52.62c-.63-.07-1.07.08-1.43.7-.71,1.18-1.65,2.18-2.81,2.96-.58.39-1.21.73-1.54,1.41" />
    <path fill="none" stroke="currentColor" stroke-linecap="round" stroke-linejoin="round" stroke-width="4" d="M40.15,59.69c.06.32.22.69-.07.93-1.09.94-1.21,2.39-1.85,3.56-.08.15-.26.37-.17.7.54,1.9.66,3.93,1.79,5.65" />
  </g>
</svg>