<?xml version='1.0' encoding='utf-8'?>
<svg xmlns="http://www.w3.org/2000/svg" id="Layer_1" version="1.1" viewBox="0 0 160 160">
  <g transform="translate(8.1738 -2.2275) scale(1.170665)">
    <path fill="currentColor" d="M90.11,67.72c-6.31-2.82-7.58-10.85-5.72-16.08l1.89-5.31c1.38-3.89,1.33-7.84-.18-11.67l-1.75-4.47c-2.39-6.09-1.63-14.32,5.14-17.31,6.38-2.82,13.96-1.47,18.34,4.68,7.99,11.19,7.86,33.63.08,45.75-3.82,5.96-10.88,7.34-17.8,4.41Z" />
    <path fill="currentColor" d="M38.88,56.44c.03,8.23-5.76,12.9-13.77,12.84-17.11-.13-20.74-36.4-10.51-51.39,3.26-4.78,8.43-7.02,14.22-6.26,7.81,1.03,12.97,8.4,10.29,15.86l-2.73,7.63c-3.36,9.38,2.46,13.37,2.49,21.33Z" />
    <path fill="currentColor" d="M85.3,38.96c2.13,3.11-8.88,1.34-12.09,9.74-2.54,6.62-1.32,16.62,1.01,23.36l2.31,6.69c3.48,10.07,3.32,23.44-4.84,31.28l-3.57,3.43c-1.74,1.68-2.66,3.74-2.82,6.24l-.4,6.61c-.13,2.12-1.79,2.83-3.71,2.69s-3.33-.95-3.5-2.94l-.62-7.4c-.42-5-4.98-6.64-7.44-9.81-6.85-8.81-6.86-20.98-3-31.15,3.35-8.82,6.16-21.11,2.33-29.98-3.66-8.47-14.35-4.22-11.24-9,1.65-2.53,11.04-1.37,15.51,6.3,5.87,10.05,1.34,26.99-3.9,36.83-4.79,9-1.75,19.85,2.98,18.29,1.3-.43,2.42-.91,3.7-1.48,10.1-4.51,15.44,5.59,18.29,0,2.71-5.31,1.58-12.05-1.13-17.25-4.62-8.89-8.35-22.06-5.66-31.78,3.07-11.11,15.22-14.4,17.77-10.66Z" />
    <path fill="none" stroke="currentColor" stroke-linecap="round" stroke-linejoin="round" stroke-width="2" d="M83.6,39.68c-9.2-2.03-14.34,7.18-13.48,19.71.52,7.52,2.64,14.62,5.77,21.58,2.11,4.69,3.57,9.94,2.2,15.43-2.32,9.24-6.61,10.95-16.53,10.93-5.08,0-10.27-.37-13.01-5.93-3.22-6.53-2.62-13.09.06-19.49,4.05-9.65,7.12-19.31,5.02-30.03-1.25-6.39-5.82-13.37-13.81-12.33" />
    <path fill="none" stroke="currentColor" stroke-linecap="round" stroke-linejoin="round" stroke-width="2" d="M62.56,108.39c.09,6.83-1.58,12.29-.39,19.12" />
  </g>
</svg>