<?xml version="1.0" encoding="UTF-8"?>
<svg id="Layer_1" xmlns="http://www.w3.org/2000/svg" version="1.1" viewBox="0 0 344.05 385.06">
  <path fill="none" stroke="currentColor" stroke-linecap="round" stroke-linejoin="round" stroke-width="12" d="M145.79,183.33c-2.57,16.14-8.84,30.99-16.05,45.48-3.72,7.48-8.19,14.62-10.88,22.55-2.23,6.59-.6,12.53,3.88,18.02,12.64,15.49,26.44,29.83,40.98,43.53,4.42,4.17,9.72,4.8,15.08,5.32,4.56.44,8.34,2.74,12.44,4.24,1.43.52,3.55,2.11,3.43,3.86-.4,6.05,4.44,6.71,8.16,7.86,3.5,1.08,6.9,2.31,9.91,4.22,6.31,4.02,6.37,7.97.01,11.88-12.78,7.85-34.43,9.27-47.47-1.95-14.64-12.6-30.61-23.44-47.17-33.21-6.23-3.67-11.31-8.53-17.25-12.41-6.72-4.39-12.2-10.36-17.65-16.31-9.06-9.89-10.54-21.51-8.93-34.06,2.05-16.1,7.08-31.49,11.62-46.97,3.62-12.35,6.64-24.87,10.87-37.04,5.19-14.9,14.44-27.14,25.58-37.93,11.51-11.15,21.03-23.75,28.82-37.63,3.4-6.05,8.35-8.33,14.61-8.38,20.29-.17,39.42-4.84,57.53-13.98,3.62-1.83,6.19-5.32,10-6.46,5.45-1.65,9.56-4.92,10.76-10.15,1.15-5.02-.65-10.19-2.8-14.95-7.04-15.58-19.93-24.25-35.51-29.44-8.38-2.79-17.12-4.28-25.98-4.01-21.05.62-37.95,8.53-49.1,27.39-7.74,13.09-11.89,26.89-11.95,42.06-.03,7.32-4.31,13.11-7.99,18.97-5.58,8.88-13.05,16.37-18.96,25.02-10.31,15.08-15.68,31.62-15.57,50,.06,9.73.13,19.42,2.07,29"/>
  <path fill="none" stroke="currentColor" stroke-linecap="round" stroke-linejoin="round" stroke-width="12" d="M205.29,231.83c2.55.57,5-.44,7.49-.64,5.33-.42,9.58,2.71,13.88,4.45,16.14,6.55,30.16,16.33,40.17,31.16,9.23,13.68,12.94,28.82,11.87,45.02-1.4,21.06-10.2,38.92-25.45,53.46-5.26,5.02-10.85,9.8-17.48,12.99-2.16,1.04-2.7,2.47-2.47,4.56"/>
  <path fill="none" stroke="currentColor" stroke-linecap="round" stroke-linejoin="round" stroke-width="12" d="M173.79,126.83c-5.43,8.04-4.74,17.5,1.45,24.54,3.32,3.78,7.44,7.09,8.58,12.45.43,2.05,2.52,2.55,4,3.47,10.69,6.59,21.08,13.55,29.99,22.52,8.98,9.04,10.53,23.1,1.9,33.95-1.76,2.21-2.79,4.46-3.41,7.07"/>
  <path fill="none" stroke="currentColor" stroke-linecap="round" stroke-linejoin="round" stroke-width="12" d="M112.29,313.33c-8.85,15.11-16.14,30.77-18.06,48.49-.75,6.9-.5,13.69.56,20.51"/>
  <path fill="none" stroke="currentColor" stroke-linecap="round" stroke-linejoin="round" stroke-width="12" d="M126.29,139.83c13.18,5.31,24.16,14.57,36.99,20.53,3.13,1.45,6.38,2.56,9.51,3.98,3.63,1.65,7.28,1.67,11.01.48"/>
  <path fill="none" stroke="currentColor" stroke-linecap="round" stroke-linejoin="round" stroke-width="12" d="M239.79,62.33c1.05,6.08-1.05,11.87-4.22,16.34-5.86,8.25-7.48,17-6.8,26.66.36,5.05.2,7.3-6.48,7.47-1.61.04-2.95.81-3.42,2.05-1.37,3.61-4.09,5.91-7.09,7.95-2.87,1.94-4.71,4.64-6.52,7.5-4.15,6.54-8.8,7.49-16,4.63-5.46-2.17-9.06-7.24-14.89-8.86-.92-.25-2.33-3.2-2.82-5.24"/>
</svg>
