<?xml version='1.0' encoding='utf-8'?>
<svg xmlns="http://www.w3.org/2000/svg" id="Layer_1" version="1.1" viewBox="0 0 160 160">
  <g transform="translate(9.0044 7.8859) scale(1.657033)">
    <path fill="none" stroke="currentColor" stroke-linecap="round" stroke-linejoin="round" stroke-width="2" d="M31.49,52.41c.71.7,1.14,1.64,1.99,2.22.64.45,1.39.72,2.01,1.21.12.1.29.18.37.29.61.86,1.56.68,2.4.75.74.06,1.41-.2,2-.69.93-.77,1.69-1.7,2.41-2.63.87-1.13,1.97-2.04,2.8-3.19.05-.06.12-.1.16-.17.8-1.28,2.06-2.16,2.94-3.38,1.01-1.4,2.35-2.51,3.37-3.89,1.01-1.36,2.32-2.47,3.33-3.82,1.08-1.44,2.42-2.65,3.56-4.04,1.18-1.44,2.43-2.82,3.66-4.21,1.24-1.4,2.46-2.82,3.7-4.22,1.23-1.39,2.45-2.8,3.67-4.2,2.92-3.35,5.82-6.71,8.77-10.03,1.32-1.49,1.96-3.2,1.75-5.16-.24-2.2-1.24-3.94-3.36-4.88-1.96-.87-4.06-.12-5.2,1.17-2.34,2.65-4.67,5.31-6.99,7.98-1.81,2.09-3.64,4.16-5.45,6.25-1.67,1.93-3.37,3.84-5.03,5.77-1.45,1.69-3,3.3-4.37,5.05-.96,1.22-2.17,2.21-3.05,3.49-.87,1.26-2.12,2.18-3.01,3.43-1.01,1.43-2.42,2.52-3.43,3.94-1,1.41-2.41,2.46-3.38,3.88-.82,1.19-1.98,2.06-2.84,3.2-.66.88-1.52,1.61-2.06,2.6-.3.55-.4,1.14-.47,1.73-.04.33-.11.66-.14.99-.03.32-.14.62-.54.73-.43.13-.71.5-1,.82-2.31,2.66-4.62,5.32-6.95,7.96-1.73,1.96-3.44,3.94-5.18,5.9-2.49,2.8-4.92,5.65-7.38,8.47-1.58,1.8-3.16,3.6-4.72,5.42-.09.11-.19.22-.27.34-.44.65-.39,1.05.22,1.55.6.48,1.29.8,1.99,1.12,1.17.54,2.39.85,3.66.87,2.16.04,4.11-.69,5.93-1.77,2.38-1.41,4.33-3.32,6.15-5.38,1.23-1.39,2.46-2.79,3.66-4.21,1.91-2.25,3.88-4.43,5.83-6.65.48-.55.61-1.12.4-1.84-.24-.8-.52-1.59-.57-2.43-.05-.72.21-1.33.62-1.88.68-.91,1.36-1.82,2.06-2.71.36-.46.56-.98.87-1.45" />
    <path fill="none" stroke="currentColor" stroke-linecap="round" stroke-linejoin="round" stroke-width="2" d="M72.57,11.48c-.35,0-.6.11-.84.41-1.42,1.68-2.89,3.32-4.32,4.99-1.13,1.31-2.28,2.59-3.42,3.89-1.4,1.6-2.78,3.2-4.17,4.81-.87,1.01-1.77,2-2.64,3.01-.64.73-1.27,1.47-1.91,2.2-.31.35-.41.7-.37,1.12" />
    <path fill="none" stroke="currentColor" stroke-linecap="round" stroke-linejoin="round" stroke-width="2" d="M26.22,64.83c.08.6-.15,1.06-.55,1.5-2.77,3.09-5.44,6.27-8.22,9.35-.41.45-.46.92-.43,1.45" />
    <path fill="none" stroke="currentColor" stroke-linecap="round" stroke-linejoin="round" stroke-width="2" d="M36.7,44.1c.83.55,1.33,1.4,1.82,2.22,1.14,1.88,2.33,3.73,3.51,5.59.22.34.56.58.88.84" />
    <path fill="none" stroke="currentColor" stroke-linecap="round" stroke-linejoin="round" stroke-width="2" d="M52.44,41.77c-1.02-.85-1.57-2.03-2.26-3.11-.96-1.5-1.94-3-2.84-4.54-.19-.33-.5-.57-.77-.83" />
    <path fill="none" stroke="currentColor" stroke-linecap="round" stroke-linejoin="round" stroke-width="2" d="M49.67,29.58c1,.74,1.44,1.9,2.1,2.89,1.06,1.58,2.02,3.22,3.06,4.82.18.28.49.44.67.72" />
    <path fill="none" stroke="currentColor" stroke-linecap="round" stroke-linejoin="round" stroke-width="2" d="M40.03,40.55c1.03.76,1.49,1.92,2.16,2.94,1.03,1.55,1.99,3.14,2.99,4.71.19.29.45.52.67.77" />
    <path fill="none" stroke="currentColor" stroke-linecap="round" stroke-linejoin="round" stroke-width="2" d="M43.35,36.89c1.02,1.04,1.66,2.34,2.43,3.55.92,1.43,1.83,2.87,2.72,4.32.16.26.4.45.61.67" />
  </g>
</svg>